# xmcd
#
# Track frame offsets:
#	150
#	13597
#	22191
#	41884
#	53638
#	70568
#	88854
#	107812
#	118857
#	133399
#
# Disc length: 1980 seconds
# Revision: 0
# Processed by: cddbd v1.5.2PL0 Copyright (c) Steve Scherf et al.
# Submitted via: dBpowerAMP V12.0
#
DISCID=8e07ba0a
DTITLE=Tommy and The Liebermen - Common Denominator
DYEAR=2013
DGENRE=Blues
TTITLE0=No Matter What
TTITLE1=Only Human
TTITLE2=Common Denominator
TTITLE3=That's Why I Love You Most
TTITLE4=Obrigado, Corcovado
TTITLE5=Guinea Pig
TTITLE6=Once In A While
TTITLE7=Tee Many Martoonis
TTITLE8=Quiet Breathing
TTITLE9=Mother Nature, Father Time
EXTD=
EXTT0=
EXTT1=
EXTT2=
EXTT3=
EXTT4=
EXTT5=
EXTT6=
EXTT7=
EXTT8=
EXTT9=
PLAYORDER=
